<svg height="40" viewBox="0 0 40 40" width="40" xmlns="http://www.w3.org/2000/svg" xmlns:xlink="http://www.w3.org/1999/xlink"><linearGradient id="a"><stop offset="0" stop-color="#d25e13"/><stop offset="1" stop-color="#ef7622"/></linearGradient><linearGradient id="b" x1="49.209%" x2="50%" xlink:href="#a" y1="28.161%" y2="44.065%"/><linearGradient id="c" x1="29.521%" x2="47.639%" xlink:href="#a" y1="48.493%" y2="64.136%"/><g fill="none" fill-rule="evenodd"><path d="m0 0h40v40h-40z"/><g stroke="#1d6076"><path d="m5.684 10.737h28.632c.93 0 1.684.754 1.684 1.684v18.526a5.053 5.053 0 0 1 -5.053 5.053h-21.894a5.053 5.053 0 0 1 -5.053-5.053v-18.526c0-.93.754-1.684 1.684-1.684z" fill="#fff" stroke-linecap="round" stroke-linejoin="round"/><path d="m17.474 4h5.052a2.526 2.526 0 0 1 2.527 2.526v4.21h-10.106v-4.21a2.526 2.526 0 0 1 2.527-2.526z"/><path d="m14.947 10.316v3.368m0 2.948v-.843m10.106-5.894v6.737" stroke-linecap="round" stroke-linejoin="round"/></g><path d="m4 17.474v12.855c0 2.853.297 4.088 1.565 4.834.953.56 3.227.837 4.34.837h20.439c1.512 0 2.836-.612 3.972-1.835-16.076-.395-26.18-5.958-30.316-16.691z" fill="#00a3ad" opacity=".1"/><g fill-rule="nonzero"><path d="m2.188 1.55c-.28.148-.502.352-.662.61-.281.148-.502.35-.663.61-.522.257-.863.755-.863 1.346v3.564l.402.258v-3.913c0-.277.1-.517.26-.72v4.8l.402.258v-4.855a1.157 1.157 0 0 1 .261-.72v5.76l.402.258v-5.908c0-.11.02-.203.04-.313.02-.056.04-.093.06-.148.04-.092.1-.185.16-.259v6.794l.402.259v-6.942c0-.11.02-.203.04-.314.02-.055.04-.092.06-.147.04-.093.1-.185.161-.259v7.828l.402.258v-7.975c0-.11.02-.203.04-.314.02-.055.04-.092.06-.148.08-.184.22-.332.381-.461a1.692 1.692 0 0 0 -1.345.794z" fill="url(#b)" transform="translate(15.5 18)"/><path d="m8.532 10.172.301-.258-3.975-2.585a.882.882 0 0 1 -.24-.221c-.04-.056-.06-.093-.101-.148a.94.94 0 0 1 -.1-.406v-.11c-.16.147-.281.313-.342.498a1.3 1.3 0 0 0 -.06.387c0 .13.02.277.08.406-.04.13-.08.259-.08.388 0 .148.02.277.08.406-.04.13-.08.259-.08.388 0 .148.02.277.08.406a.988.988 0 0 0 .402 1.237l2.008 1.274.3-.259-2.107-1.347a.702.702 0 0 1 -.321-.517v-.019c.06.056.1.093.16.13l2.49 1.606.3-.259-2.549-1.643a.609.609 0 0 1 -.22-.221.614.614 0 0 1 -.121-.333c.04.037.1.074.14.111l2.951 1.902.302-.259-3.012-1.92c-.04-.037-.08-.055-.12-.11a1.03 1.03 0 0 1 -.14-.167.527.527 0 0 1 -.101-.295c.06.055.1.092.16.13l3.433 2.214.302-.258-3.514-2.252c-.08-.056-.14-.093-.18-.166l-.12-.167a1.013 1.013 0 0 1 -.101-.258c.06.055.12.092.18.148z" fill="url(#c)" transform="translate(15.5 18)"/><path d="m19.877 18.13h-.06c-.623 0-1.185.313-1.466.793-.281.148-.502.35-.663.61-.28.147-.502.35-.662.609-.281.147-.502.35-.663.609-.522.258-.863.757-.863 1.347v.887c0-1.163.743-2.031 1.666-2.031h2.711c.702 0 1.264.517 1.264 1.163 0 .314-.14.628-.421.868l-.723.59c-.301.259-.482.61-.482.997 0 .13.02.277.06.406a1.3 1.3 0 0 0 -.06.388c0 .13.02.277.08.406-.04.13-.08.259-.08.388 0 .148.02.277.08.406-.04.13-.08.259-.08.388 0 .148.02.277.08.406a.988.988 0 0 0 .402 1.237l.261.166a1.034 1.034 0 0 1 -.381-.812c0-.24.08-.48.2-.628.02-.018.04-.055.08-.074l2.63-2.178c.904-.776 1.386-1.81 1.386-2.917.02-2.234-1.907-4.025-4.296-4.025zm.401 5.704.723-.59c.341-.315.542-.702.542-1.127 0-.85-.743-1.532-1.666-1.532h-2.831c.08-.056.18-.111.28-.148.061-.019.101-.037.161-.055.1-.019.221-.037.342-.037h2.048c1.064 0 1.927.793 1.927 1.772 0 .48-.221.96-.623 1.31l-1.184.998-.04.037c0-.259.12-.462.321-.628zm-.24 1.126c.06-.11.12-.203.22-.277l1.184-.997c.482-.424.763-.978.763-1.57 0-1.18-1.044-2.14-2.328-2.14h-2.188c.08-.056.18-.111.28-.148.06-.019.1-.037.16-.056.101-.018.222-.037.342-.037h1.385c1.426 0 2.59 1.071 2.59 2.382 0 .665-.3 1.292-.843 1.754l-1.486 1.237-.16.147-.02.019c0-.11.04-.222.1-.314zm0 .775c.02-.037.06-.073.08-.11.04-.037.06-.074.1-.111l1.666-1.385c.622-.535.964-1.255.964-2.03 0-1.514-1.345-2.751-2.992-2.751h-1.525c.08-.056.18-.111.28-.148.161-.055.322-.092.503-.092h.722c1.827 0 3.293 1.347 3.293 2.99 0 .831-.382 1.607-1.044 2.197l-1.927 1.607-.221.184c0-.11.04-.24.1-.35zm2.489-.978-2.35 1.938-.26.203c0-.129.04-.258.12-.369.04-.055.06-.092.1-.129l.04-.037 2.149-1.79c.763-.665 1.184-1.533 1.184-2.475 0-1.846-1.646-3.36-3.654-3.36h-.842c.22-.147.481-.24.782-.24h.06c2.169 0 3.915 1.625 3.915 3.6.02 1.016-.421 1.957-1.244 2.659z" fill="#f39500"/></g></g></svg>