<svg xmlns="http://www.w3.org/2000/svg" width="206" height="36" viewBox="0 0 206 36">
    <path fill="#A09A93" fill-rule="nonzero" d="M35.681 9.738V24.87c0 3.046 1.86 5.253 5.48 5.253 3.573 0 5.456-2.207 5.456-5.253V9.738h6.784v15.325C53.401 31.491 49.514 36 41.186 36c-8.33 0-12.313-4.557-12.313-10.913V9.737h6.808zm102.505-.624c7.726 0 12.892 5.732 12.892 14.03v1.584h-19.144c.483 3.117 3.042 5.732 7.411 5.732 2.197 0 5.166-.912 6.832-2.495l3.042 4.461c-2.559 2.327-6.615 3.55-10.598 3.55-7.846 0-13.76-5.252-13.76-13.455 0-7.411 5.552-13.407 13.325-13.407zm28.053 0c7.725 0 12.891 5.732 12.891 14.03v1.584h-19.144c.483 3.117 3.042 5.732 7.412 5.732 2.197 0 5.166-.912 6.832-2.495l3.042 4.461c-2.56 2.327-6.615 3.55-10.599 3.55-7.846 0-13.76-5.252-13.76-13.455 0-7.411 5.552-13.407 13.326-13.407zm25.759.576C200.134 9.69 206 14.534 206 22.52c0 7.963-5.842 12.855-13.954 12.855h-10.429V9.69h10.38zM15.86 0c6.76 0 10.236 4.293 10.236 8.994 0 4.39-2.776 7.411-6.132 8.107 3.839.575 6.832 4.245 6.832 8.634 0 5.348-3.525 9.593-10.332 9.593H0V0h15.861zm60.62 9.738v4.82L64.65 29.452h12.047v5.876H55.646v-5.036l11.612-14.678H55.646V9.738H76.48zm23.272 0v4.82l-11.83 14.894H99.97v5.876H78.92v-5.036L90.53 15.614H78.919V9.738h20.834zM127.178 0v6.62h-17.092v7.41h12.867v6.62h-12.867v14.678h-7.58V0h24.672zm65.085 15.23h-4.2v14.606h4.2c4.515 0 7.146-3.502 7.146-7.315 0-3.981-2.414-7.291-7.146-7.291zm-177.73 5.42H7.58v8.059h6.977c2.8 0 4.515-1.487 4.515-4.03 0-2.23-1.594-4.029-4.539-4.029zm123.653-6.02c-4.2 0-6.035 2.902-6.3 5.445h12.698c-.217-2.447-1.931-5.445-6.398-5.445zm28.053 0c-4.2 0-6.036 2.902-6.301 5.445h12.698c-.217-2.447-1.931-5.445-6.397-5.445zM14.219 6.62H7.58v7.41h6.64c2.558 0 4.152-1.414 4.152-3.693 0-2.182-1.594-3.717-4.153-3.717z"/>
</svg>
