<svg xmlns="http://www.w3.org/2000/svg" width="224" height="40" viewBox="0 0 224 40">
  <path fill="#A09A93" d="M10.5918016,13.612914 C17.9481297,11.9391951 25.3044578,16.4396394 26.9848373,23.6180339 C27.1715461,24.4734903 27.2835714,25.3661404 27.3209132,26.2587905 L27.3209132,26.2587905 L23.1386353,27.1886343 L20.9728128,27.6721531 L7.56711847,30.6848472 C9.24749799,33.0652475 12.3095229,34.2926414 15.334206,33.6231538 C17.1639526,33.2140225 18.7696486,32.1354036 19.815218,30.6104597 L19.815218,30.6104597 L26.1633184,32.0982099 C24.4455972,35.7803916 21.0848381,38.6815044 16.7531932,39.648542 C9.39686506,41.3222609 2.07787872,36.8590104 0.360157442,29.6434221 C-1.35756384,22.4278338 3.2354735,15.286633 10.5918016,13.612914 Z M207.270888,13.6501078 C214.627216,11.9763889 221.983545,16.4768331 223.663924,23.6552277 C223.850633,24.510684 223.962658,25.4033341 224,26.2959842 L224,26.2959842 L219.817722,27.2258281 L217.6519,27.7093469 L204.246205,30.722041 C205.926585,33.1024413 208.98861,34.3298351 212.013293,33.6603476 C213.843039,33.2512163 215.448735,32.1725974 216.494305,30.6476535 L216.494305,30.6476535 L222.842405,32.0982099 C221.124684,35.7803916 217.763925,38.6815044 213.43228,39.648542 C206.075952,41.3222609 198.719624,36.8218167 197.039244,29.6434221 C195.321523,22.4650275 199.91456,15.3238267 207.270888,13.6501078 Z M61.974073,13.6501078 C69.3304011,11.9763889 76.6493874,16.4768331 78.3671087,23.6552277 C78.5538175,24.510684 78.6658428,25.4033341 78.7031846,26.2959842 L78.7031846,26.2959842 L74.5209067,27.2258281 L72.3550842,27.7093469 L58.9493899,30.722041 C60.7044529,33.1768288 63.7664778,34.3298351 66.7164774,33.6603476 C68.546224,33.2512163 70.15192,32.1725974 71.1974894,30.6476535 C71.1974894,30.6476535 77.5455898,32.0610161 77.5455898,32.0982099 C75.8278685,35.7803916 72.4671095,38.6815044 68.1354645,39.648542 C60.7791364,41.3222609 53.4228083,36.8218167 51.7424288,29.6434221 C50.0247076,22.4650275 54.6177449,15.3238267 61.974073,13.6501078 Z M131.65381,1.42108547e-14 L131.65381,15.6213768 C133.744949,13.9476578 136.209506,13.2409765 138.935455,13.2409765 C146.627859,13.2409765 152.78925,19.1547834 152.78925,26.5563405 C152.78925,33.9207038 146.627859,39.946092 138.935455,39.946092 C136.246848,39.946092 133.744949,39.2394107 131.65381,37.5656918 L131.65381,39.2394107 L124.89495,39.2394107 L124.89495,1.52494392 L131.65381,1.42108547e-14 Z M178.331019,13.6873016 L178.331019,39.2394107 L171.572159,39.2394107 L171.572159,13.6873016 L178.331019,13.6873016 Z M161.639249,13.6873016 L161.639249,15.9561206 C163.730388,14.4683704 165.746843,13.9476578 169.219628,13.7616891 L169.219628,13.7616891 L169.219628,20.3077898 C162.610135,20.5309523 161.639249,22.7625776 161.639249,26.7051155 L161.639249,26.7051155 L161.639249,39.2394107 L154.880389,39.2394107 L154.880389,13.6873016 L161.639249,13.6873016 Z M117.501281,3.19866286 L117.501281,13.6873016 L122.76647,13.6873016 L122.76647,20.0474335 L117.501281,20.0474335 L117.501281,39.2394107 L110.481028,39.2394107 L110.481028,20.0474335 L106.336092,20.0474335 L106.336092,13.6873016 L110.481028,13.6873016 L110.481028,4.76080054 L117.501281,3.19866286 Z M94.2000179,13.2037827 C99.9133083,13.2037827 104.879763,16.4768331 104.879763,24.4734903 L104.879763,39.2022169 L98.0835617,39.2022169 L98.0835617,25.5893029 C98.0835617,20.6425336 95.3949545,19.5639147 92.7063472,19.5639147 C90.01774,19.5639147 87.3291328,20.5681461 87.3291328,25.4777216 L87.3291328,39.2394107 L80.570273,39.2394107 L80.570273,13.6873016 L87.3291328,13.6873016 L87.3291328,15.584183 C88.8228035,14.5055641 90.6152083,13.2037827 94.2000179,13.2037827 Z M32.6234441,13.6873016 L39.2702787,31.019591 L45.9917967,13.6873016 L53.3481248,13.6873016 L42.8177465,39.2394107 L35.7974943,39.2394107 L25.267116,13.6873016 L32.6234441,13.6873016 Z M191.960764,4.76080054 L191.960764,13.6873016 L197.225953,13.6873016 L197.225953,20.1590148 L191.960764,20.1590148 L191.960764,39.2022169 L184.940512,39.2022169 L184.940512,20.1962085 L180.795576,20.1962085 L180.795576,13.6873016 L184.940512,13.6873016 L184.940512,4.76080054 L191.960764,4.76080054 Z M138.898113,19.3779459 C134.902544,19.3779459 131.65381,22.5394151 131.504443,26.2215967 L131.504443,26.8538905 L131.504443,26.8538905 C131.691152,30.573266 134.939886,33.6975413 138.898113,33.6975413 C142.931024,33.6975413 146.254441,30.424491 146.254441,26.5191468 C146.254441,22.6881901 142.931024,19.3779459 138.898113,19.3779459 Z M216.419621,22.4650275 C214.664558,20.0474335 211.602533,18.8944271 208.689876,19.5639147 C205.665192,20.2334023 203.536712,22.6509963 203.051269,25.4777216 L203.051269,25.4777216 Z M71.1228059,22.4650275 C69.4424264,20.121821 66.4177433,18.8944271 63.3930601,19.5639147 C60.368377,20.2334023 58.2025545,22.6509963 57.7544533,25.4777216 L57.7544533,25.4777216 Z M19.7405345,22.4650275 C18.060155,20.121821 15.0354719,18.8944271 12.0107887,19.5639147 C8.98610562,20.2334023 6.82028313,22.6138026 6.37218193,25.4777216 L6.37218193,25.4777216 Z M174.97026,0.595100067 C177.397475,0.595100067 179.18988,2.38040027 179.18988,4.72360679 C179.18988,7.10400706 177.360133,8.92650101 174.97026,8.92650101 C172.543045,8.92650101 170.675957,7.10400706 170.675957,4.72360679 C170.675957,2.34320652 172.543045,0.595100067 174.97026,0.595100067 Z"/>
</svg>
