<svg height="74" viewBox="0 0 103 74" width="103" xmlns="http://www.w3.org/2000/svg" xmlns:xlink="http://www.w3.org/1999/xlink"><mask id="a" fill="#fff"><path d="m6.863 1.125h-4.725a.994.994 0 0 0 -1.013 1.013v5.4c0 .134.068.27.203.303.033.034.1.034.134.034a.305.305 0 0 0 .237-.101l1.248-1.249h3.915a.994.994 0 0 0 1.013-1.012v-3.375a.994.994 0 0 0 -1.013-1.013zm.337 4.388c0 .202-.135.337-.338.337h-4.05a.305.305 0 0 0 -.236.101l-.776.777v-4.59c0-.203.134-.338.337-.338h4.725c.203 0 .338.135.338.338z" fill="none"/></mask><mask id="b" fill="#fff"><path d="m5.83 0h-4.91c-.52 0-.92.379-.92.875v3.5c0 .496.399.875.92.875h4.91c.521 0 .92-.38.92-.875v-3.5c0-.496-.399-.875-.92-.875zm-4.91.583h4.91c.122 0 .214.059.275.175l-2.73 1.809-2.732-1.809c.062-.116.154-.175.277-.175zm4.91 4.084h-4.91c-.184 0-.306-.117-.306-.292v-2.946l2.576 1.721c.062.03.123.058.184.058.062 0 .123-.029.184-.058l2.578-1.721v2.946c0 .175-.123.292-.307.292z" fill="none"/></mask><g fill="none" fill-rule="evenodd"><path d="m19.273 25.8c0-5.302-4.315-9.6-9.637-9.6s-9.636 4.298-9.636 9.6 4.314 9.6 9.636 9.6 9.637-4.298 9.637-9.6m6.424 20c-7.096 0-12.849 5.73-12.849 12.8s5.753 12.8 12.849 12.8c7.097 0 12.848-5.73 12.848-12.8s-5.751-12.8-12.848-12.8zm64.243-10.4c-7.097 0-12.85 5.73-12.85 12.8s5.754 12.8 12.85 12.8 12.848-5.73 12.848-12.8-5.752-12.8-12.849-12.8zm12.848-18.4c0-1.767-1.438-3.2-3.212-3.2a3.206 3.206 0 0 0 -3.212 3.2c0 1.767 1.438 3.2 3.212 3.2a3.206 3.206 0 0 0 3.212-3.2m-16.061-7.2c0-3.534-2.876-6.4-6.424-6.4s-6.424 2.866-6.424 6.4 2.876 6.4 6.424 6.4 6.424-2.866 6.424-6.4" fill="#00a3ad" opacity=".1"/><path d="m21.588 22.922a4.996 4.996 0 0 1 2.783-5.012l5.053-2.457a9.988 9.988 0 0 0 4.341-4.092l2.833-5.046a4.991 4.991 0 0 1 5.133-2.487l5.693.903a9.981 9.981 0 0 0 5.882-.861l4.951-2.378a4.99 4.99 0 0 1 5.606.888l3.974 3.793a9.99 9.99 0 0 0 5.328 2.637l5.693.902a4.994 4.994 0 0 1 4.114 3.953l1.136 5.674a9.995 9.995 0 0 0 2.864 5.234l4.048 3.9a4.997 4.997 0 0 1 1.099 5.627l-2.527 5.69a9.989 9.989 0 0 0 -.807 5.095l.646 6.193a4.996 4.996 0 0 1 -2.783 5.012l-5.053 2.457a9.984 9.984 0 0 0 -4.341 4.092l-2.832 5.046a4.991 4.991 0 0 1 -5.134 2.486l-5.693-.902a9.982 9.982 0 0 0 -5.882.861l-4.951 2.378a4.99 4.99 0 0 1 -5.606-.888l-3.974-3.792a9.985 9.985 0 0 0 -5.328-2.638l-5.693-.902a4.992 4.992 0 0 1 -4.114-3.953l-1.136-5.674a9.993 9.993 0 0 0 -2.864-5.235l-4.048-3.899a4.997 4.997 0 0 1 -1.099-5.626l2.528-5.691a9.997 9.997 0 0 0 .806-5.095l-.646-6.193z" fill="#fff" stroke="#1d6076" stroke-linejoin="round" stroke-width="1.5"/><path d="m33.921 38.789c-.621.326-1.478.552-2.46.552-2.037 0-3.506-1.357-3.506-3.375 0-2.054 1.514-3.366 3.461-3.366 1 0 1.929.335 2.46.85l-.973 1.113c-.297-.343-.811-.597-1.433-.597-1.081 0-1.874.85-1.874 2 0 1.176.694 2.018 1.946 2.018.36 0 .694-.055.965-.172v-1.167h-1.217v-1.25h2.631zm6.67-2.027c0 1.538-1.082 2.588-2.75 2.588-1.676 0-2.721-1.05-2.721-2.588v-3.99h1.532v3.864c0 .687.333 1.32 1.199 1.32.874 0 1.198-.633 1.198-1.32v-3.864h1.541v3.99zm7.119 2.416h-1.713l-.495-1.258h-2.47l-.468 1.258h-1.676l2.676-6.406h1.496zm-2.632-2.497-.793-2.199-.811 2.199zm8.381 2.497h-1.802l-1.379-2.542h-.523v2.542h-1.514v-6.406h2.434c1.225 0 2.442.47 2.442 1.936 0 .86-.505 1.475-1.325 1.728zm-1.865-4.443c0-.597-.568-.714-1.028-.714h-.82v1.493h.73c.496 0 1.118-.127 1.118-.779zm8.66 4.443h-1.712l-.496-1.258h-2.469l-.469 1.258h-1.676l2.677-6.406h1.496l2.65 6.406zm-2.631-2.497-.793-2.199-.811 2.199zm8.967 2.497h-1.75l-2.568-4.19h-.027l.036 4.19h-1.496v-6.406h1.757l2.56 4.18h.027l-.036-4.18h1.496v6.406zm5.848-5.085h-1.802v5.085h-1.541v-5.085h-1.802v-1.321h5.145zm5.155 5.085h-4.452v-6.406h4.29v1.312h-2.803v1.203h2.65v1.24h-2.65v1.33h2.965zm5.47 0h-4.451v-6.406h4.29v1.312h-2.803v1.203h2.649v1.24h-2.65v1.33h2.965z" fill="#eb9d00" fill-rule="nonzero"/><path d="m35.43 23.885-2.874-1.956.07 1.118-.984.036-.073-1.94.577-.856 3.914 2.664zm-.13-6.107c-.409.433.188 1.163.618 1.575.44.422 1.194.988 1.604.555.406-.427-.197-1.153-.636-1.575-.43-.412-1.18-.982-1.585-.555zm2.917 2.797c-.926.977-2.12.545-3.091-.386-.966-.926-1.437-2.092-.51-3.068.921-.972 2.096-.55 3.062.377.97.93 1.46 2.105.539 3.077zm.597-5.933c-.476.358-.007 1.18.348 1.658.365.489 1.015 1.173 1.492.815.47-.355-.004-1.171-.369-1.66-.355-.479-1-1.167-1.471-.813zm2.416 3.247c-1.075.809-2.183.183-2.987-.897-.8-1.075-1.072-2.304.002-3.113 1.07-.805 2.16-.192 2.96.883.804 1.08 1.094 2.321.025 3.127zm4.86-4.878a.526.526 0 0 0 -.25.697c.121.261.43.368.69.245a.525.525 0 0 0 .252-.69.525.525 0 0 0 -.693-.252zm.757 1.622c-.635.3-1.387.033-1.684-.605a1.273 1.273 0 0 1 .611-1.69 1.259 1.259 0 0 1 1.685.604 1.273 1.273 0 0 1 -.612 1.691zm-2.373 1.286-.663-.014.424-5.614.69.007-.45 5.62zm-2.29-3.687a.526.526 0 0 0 -.25.697c.122.261.43.368.69.245a.52.52 0 1 0 -.44-.942zm.758 1.622c-.635.3-1.39.027-1.685-.605a1.269 1.269 0 0 1 .612-1.69 1.254 1.254 0 0 1 1.684.604 1.277 1.277 0 0 1 -.611 1.691zm8.713-4.15a1.14 1.14 0 0 0 -.9-.252c-.29.053-.633.218-.567.588.056.31.35.36.815.418.668.09 1.53.213 1.698 1.144.193 1.077-.582 1.716-1.502 1.883-.664.121-1.378-.002-1.862-.357l.6-.887c.275.243.727.38 1.095.313.342-.062.62-.25.553-.626-.064-.357-.438-.405-1.086-.492-.625-.084-1.277-.28-1.43-1.125-.185-1.038.671-1.636 1.539-1.794.525-.095 1.152-.005 1.627.298l-.58.89zm3.696-.23-.587 1.637 1.188-.01zm1.297 3.473-.374-.93-1.83.016-.339.937-1.242.01 1.943-4.77 1.109-.01 2.002 4.736-1.269.01zm3.568-3.388-.54 3.734-1.13-.165.54-3.734-1.321-.193.14-.97 3.773.551-.14.97zm1.078 4.067 1.219-4.593 1.11.297-1.22 4.593zm5.482-1.846a1.149 1.149 0 0 0 -.63-.693c-.273-.11-.652-.153-.79.197-.116.293.107.49.47.788.52.432 1.186.995.837 1.874-.403 1.016-1.395 1.146-2.263.798-.626-.25-1.167-.734-1.39-1.294l.975-.433c.105.353.416.71.763.848.323.13.658.12.798-.236.134-.337-.159-.577-.66-.995-.487-.405-.938-.918-.62-1.716.388-.978 1.429-1.03 2.247-.703.496.199.98.61 1.222 1.119l-.96.446zm2.672 1.088-.494.845 1.578.93-.477.817-1.577-.93-.93 1.592-.972-.574 2.393-4.1 2.682 1.583-.493.846zm.22 4.614 2.847-3.795.917.694-2.847 3.796zm1.542 1.153 3.272-3.434 2.295 2.21-.67.703-1.5-1.444-.614.645 1.417 1.365-.633.665-1.418-1.365-.679.713 1.586 1.528-.674.708zm6.754 1.804-.333-.463-2.239 1.633.318.44c.478.663 1.19 1.08 2.045.457.86-.627.672-1.426.21-2.067zm-2.992 2.28-1.034-1.435 3.829-2.791 1.002 1.392c.788 1.092 1.133 2.532-.317 3.589-1.346.981-2.716.305-3.48-.755zm-43.63 23.587-.187-.46-.827.342.167.409c.113.278.325.597.686.448.33-.138.266-.482.161-.74zm-2.608 1.79 1.094-1.353-.119-.293-1.408.582-.346-.848 3.549-1.466.555 1.363c.28.686.296 1.475-.516 1.81-.476.197-.932.055-1.26-.346l-1.138 1.561-.41-1.01zm.766 1.676 3.337-1.912 1.275 2.258-.683.392-.833-1.475-.627.359.788 1.395-.646.37-.788-1.395-.692.397.88 1.561-.687.395zm2.885 4.696c-.713-.947-.59-2.157.367-2.89.98-.748 2.156-.496 2.864.443.323.43.518 1.014.418 1.495l-.88-.122c.085-.284-.011-.601-.188-.836-.39-.517-1.065-.583-1.605-.17-.557.425-.665 1.076-.279 1.589.22.29.523.422.802.414l-.094.887c-.513-.032-1.015-.293-1.405-.81zm1.461 1.615 2.75-2.694.65.673-2.172 2.127 1.035 1.072-.579.567zm2.205 2.218 2.433-2.99 1.995 1.647-.498.612-1.304-1.076-.457.562 1.232 1.017-.47.578-1.233-1.017-.505.621 1.379 1.138-.502.617-2.07-1.71zm5.63.671-1.106.873.821.51zm-.6 2.957.142-.803-1.264-.785-.635.498-.859-.533 3.385-2.44.766.474-.657 4.133-.877-.544zm3.735 1.783-.451-2.931-.015-.006-.953 2.336-.829-.35 1.488-3.561.973.412.448 2.924.015.006.95-2.332.83.351-1.488 3.56-.968-.41zm3.462.011.164-.69 1.34.321-.165.69-1.339-.32zm6.878 2.028.17-2.73h-.016l-1.144 2.676-.65-.036-.82-2.783-.016-.001-.127 2.732-.87-.048.209-3.858 1.314.071.738 2.522.021.002.968-2.43 1.336.074-.209 3.858-.904-.05zm3.61-3.36c-.645.082-1.023.636-.94 1.307.087.693.596 1.134 1.235 1.052.64-.08 1.028-.637.942-1.33-.084-.67-.592-1.111-1.237-1.029zm.4 3.203c-1.187.151-2.171-.559-2.323-1.77-.154-1.23.63-2.115 1.818-2.266 1.194-.152 2.171.51 2.325 1.738.152 1.212-.627 2.146-1.82 2.298zm5.377-1.314-2.203-1.97-.015.004.744 2.413-.861.261-1.106-3.699 1.012-.307 2.195 1.967.016-.005-.743-2.408.861-.262 1.106 3.7zm2.044-.74-1.612-3.506 2.342-1.093.33.719-1.53.713.303.66 1.446-.676.312.679-1.446.675.335.728 1.618-.755.332.723-2.43 1.134zm3.94-3.96.868 1.385-.785.497-.867-1.385-2.398-1.109.95-.602 1.448.77-.064-1.65.917-.582-.069 2.675zm3.559-2.796-.38.351.594.651.384-.354c.215-.2.424-.503.17-.78-.216-.238-.477-.137-.768.132zm-1.041-1.052-.335.31.535.586.367-.339c.255-.237.304-.482.121-.682-.176-.193-.4-.141-.688.125zm2.228 2.177-1.126 1.042-2.595-2.846 1.127-1.041c.438-.407 1.104-.734 1.629-.16.285.315.289.697.097 1.044l.007.008c.376-.242.843-.246 1.184.128.565.62.216 1.327-.323 1.825zm.544-4.697.707 1.221.613-.75zm2.826.998-.772-.25-.943 1.155.402.7-.64.785-1.94-3.706.572-.7 3.975 1.215-.654.8zm2.012-2.835c-.617 1.015-1.781 1.341-2.807.708-1.05-.646-1.244-1.842-.633-2.847.28-.462.75-.857 1.231-.938l.208.87c-.294.024-.552.23-.705.481-.337.554-.152 1.212.425 1.568.597.368 1.238.232 1.572-.318.19-.311.201-.643.092-.903l.855-.235c.157.494.1 1.06-.238 1.614zm1.93-4.172-2.186.617-.004.01 1.623.702-.36.843-3.525-1.525.36-.843 1.434.62.006-.014-.892-1.89.458-1.073.97 2.232 2.594-.797z" fill="#1d6076"/><g transform="translate(50.992 45.55)"><path d="m0 0h9v9h-9z"/><g fill="#1d6076" mask="url(#a)"><path d="m0 0h9v9h-9z"/></g></g><path d="m50.992 18.1h9v9h-9z"/><g fill="#1d6076" mask="url(#b)" transform="translate(52.117 19.975)"><path d="m-1.125-1.875h9v9h-9z"/></g></g></svg>