<svg xmlns="http://www.w3.org/2000/svg" width="182" height="44" viewBox="0 0 182 44">
    <path fill="#A09A93" fill-rule="evenodd" d="M108.311 14.245c3.424 0 7.07 1.082 8.336 3.499.75 1.42.797 2.554.797 3.639l-.185 11.349c0 .375.045 3.548.373 5.957h-3.98c-.326-1.178-.42-2.316-.42-3.546-2.11 3.926-5.297 4.304-7.257 4.304-5.391 0-8.298-3.074-8.298-6.998 0-1.895.659-4.917 4.125-6.95 2.529-1.418 6.274-1.56 8.148-1.56 1.12 0 1.83.046 3.186.142v-.625c-.005-2.495-.063-3.665-.843-4.625-.889-1.186-2.811-1.56-4.072-1.56-4.452 0-4.682 3.072-4.73 4.019h-4.406c.14-1.226.28-2.882 1.64-4.493 1.779-1.986 5.11-2.552 7.586-2.552zm43.444-5.77v6.476h5.243v3.262h-5.243v14.142c0 1.178 0 3.169 3.138 3.169.892 0 1.732-.144 2.105-.239v3.453c-.794.14-2.058.28-3.654.28-4.026 0-5.943-1.179-5.943-5.054v-15.75h-4.168V14.95h4.168V9.892l4.354-1.417zm-18.425 6.006c2.103 0 8.529.805 8.529 8.084v16.123h-4.501v-15.08c0-1.564-.186-2.981-1.264-4.07-1.127-1.088-2.669-1.604-4.168-1.604-3.185 0-6.136 2.316-6.136 7.088v13.666h-4.4v-20.99l-.046-2.747h4.401l.045 3.834c.517-.995 2.201-4.304 7.54-4.304zM94.709 4.55v34.136H90.31V4.551h4.399zm70.264 10.4v23.737h-4.409V14.95h4.409zM182 14.767v4.346c-.233-.09-.514-.143-.844-.186-.329-.047-.745-.047-1.264-.047-5.198 0-6.42 3.116-6.42 7.183v12.624h-4.445V19.775c0-1.608-.095-3.264-.238-4.824h4.451l.096 4.588c.84-3.307 3.651-4.397 5.62-4.681a13.535 13.535 0 0 1 3.044-.09zM110.605 27.01h-.205c-2.036.006-8.27.17-8.27 4.823 0 1.512.935 4.113 4.87 4.113 2.25 0 3.935-.896 5.013-2.553.98-1.606 1.025-2.932 1.123-6.241a19.133 19.133 0 0 0-2.531-.142zm54.784-22.459v4.964h-5.293V4.55h5.293zM5.79 16.675c0-6.361 5.108-11.518 11.41-11.518 6.3 0 11.41 5.157 11.41 11.518 0 6.361-5.11 11.52-11.41 11.52-6.302 0-11.41-5.159-11.41-11.52zM.697 16.66c0 9.2 7.39 16.661 16.504 16.661s16.503-7.46 16.503-16.66C33.704 7.457 26.315 0 17.201 0S.697 7.458.697 16.66zm31.254 15.198l2.45 4.741L17.202 44 0 36.6l2.448-4.742 14.753 6.43 14.75-6.43zm45.343-17.613c3.418 0 7.073 1.082 8.338 3.499.754 1.42.797 2.554.797 3.639l-.19 11.349c0 .375.052 3.548.376 5.957h-3.983c-.328-1.178-.424-2.316-.424-3.546-2.102 3.926-5.29 4.304-7.26 4.304-5.386 0-8.282-3.074-8.282-6.998 0-1.895.65-4.917 4.118-6.95 2.531-1.418 6.278-1.56 8.148-1.56 1.124 0 1.828.046 3.186.142v-.625c-.004-2.495-.062-3.665-.84-4.625-.892-1.186-2.812-1.56-4.08-1.56-4.449 0-4.682 3.072-4.73 4.019H68.07c.135-1.226.278-2.882 1.634-4.493 1.787-1.986 5.106-2.552 7.59-2.552zM55.733 4.553c4.123 0 6.937.236 9.233 2.74 1.687 1.748 2.479 4.068 2.479 6.618 0 2.602-.84 4.827-2.664 6.669-1.785 1.795-4.121 2.934-10.216 2.934h-5.48V38.69h-4.681V4.553h11.329zM79.587 27.01h-.205c-2.038.006-8.27.17-8.27 4.823 0 1.512.933 4.113 4.87 4.113 2.246 0 3.933-.896 5.016-2.553.982-1.606 1.025-2.932 1.12-6.241a19.218 19.218 0 0 0-2.531-.142zM55.907 8.38h-6.821v11.16h5.572c3.097 0 7.824-.235 7.824-5.812 0-5.158-4.094-5.342-6.576-5.348z"/>
</svg>
