<svg height="90" viewBox="0 0 108 90" width="108" xmlns="http://www.w3.org/2000/svg"><g fill="none" fill-rule="evenodd"><path d="m24 75c0-6.627-5.372-12-12-12s-12 5.373-12 12 5.372 12 12 12 12-5.373 12-12m68-28c-8.837 0-16 7.163-16 16s7.163 16 16 16 16-7.163 16-16-7.163-16-16-16zm-12-42a4 4 0 1 0 -8 0 4 4 0 0 0 8 0m-56 14a8 8 0 1 0 -16 0 8 8 0 0 0 16 0" fill="#00a3ad" opacity=".163"/><path d="m31.11 89v-52.993l.06 13.411-12.128-7.356a2.145 2.145 0 0 1 -.95-2.455l5.623-18.61c.749-2.48 2.693-4.435 5.193-5.225l8.846-2.631c1.598-.42 4.585.108 5.256 1.598 0 0 2.396 6.171 10.99 6.171s11.447-6.574 11.447-6.574c.671-1.49 3.2-1.615 4.8-1.195l8.845 2.631c2.5.79 4.444 2.745 5.194 5.225l5.622 18.61a2.144 2.144 0 0 1 -.95 2.455l-12.128 7.356.06-13.41v52.992z" fill="#fff"/><path d="m77 80c-45.008-21.95-41.34-66-41.34-66l-10.629 3.712-7.031 23.414 13.492 8.3-.06-17.285v56.859h45.568z" fill="#00a3ad" opacity=".1"/><path d="m67.375 68.375a4.748 4.748 0 0 1 -4.75-4.75.619.619 0 0 0 -.625-.625.619.619 0 0 0 -.625.625 4.748 4.748 0 0 1 -4.75 4.75.619.619 0 0 0 -.625.625c0 .35.275.625.625.625a4.748 4.748 0 0 1 4.75 4.75c0 .35.275.625.625.625s.625-.275.625-.625a4.748 4.748 0 0 1 4.75-4.75c.35 0 .625-.275.625-.625a.619.619 0 0 0 -.625-.625zm-2-34a4.748 4.748 0 0 1 -4.75-4.75.619.619 0 0 0 -.625-.625.619.619 0 0 0 -.625.625 4.748 4.748 0 0 1 -4.75 4.75.619.619 0 0 0 -.625.625c0 .35.275.625.625.625a4.748 4.748 0 0 1 4.75 4.75c0 .35.275.625.625.625s.625-.275.625-.625a4.748 4.748 0 0 1 4.75-4.75c.35 0 .625-.275.625-.625a.619.619 0 0 0 -.625-.625zm-18.95 14.05a2.858 2.858 0 0 1 -2.85-2.85.585.585 0 0 0 -.575-.575.585.585 0 0 0 -.575.575c0 1.569-1.281 2.85-2.85 2.85a.585.585 0 0 0 -.575.575c0 .31.265.575.575.575 1.569 0 2.85 1.281 2.85 2.85 0 .31.266.575.575.575.31 0 .575-.265.575-.575 0-1.569 1.281-2.85 2.85-2.85.31 0 .575-.266.575-.575a.585.585 0 0 0 -.575-.575z" fill="#eb9d00" fill-rule="nonzero"/><g stroke="#1d6076" stroke-linecap="round" stroke-linejoin="round" stroke-width="2"><path d="m31 89v-53 13.418l-11.958-7.356a2.145 2.145 0 0 1 -.95-2.455l5.623-18.61c.749-2.48 2.693-4.435 5.193-5.225l9.846-2.631c1.598-.42 3.506.098 4.178 1.588 0 0 2.474 6.181 11.068 6.181s11.068-6.18 11.068-6.18c.671-1.49 2.58-2.01 4.178-1.59l9.846 2.632c2.5.79 4.444 2.745 5.194 5.225l5.622 18.61a2.144 2.144 0 0 1 -.95 2.455l-11.958 6.938v-13 53z"/><path d="m31 37v-2.349c0-1.638-.302-3.261-.891-4.785l-1.109-2.866m48 10v-2.349c0-1.638.302-3.261.892-4.785l1.108-2.866m-3 53h-24m-5 0h-2m-2-65 11-4 11 4m-11-4v-2.424c2.21 0 4-1.696 4-3.788s-1.79-3.788-4-3.788-4 1.696-4 3.788"/></g></g></svg>