<svg height="48" viewBox="0 0 162 48" width="162" xmlns="http://www.w3.org/2000/svg"><path d="m60.99 47.853c-1.932-.49-3.678-1.982-4.582-3.984-.596-1.267-1.11-3.76-1.11-5.272 0-1.614.699-4.577 1.418-6.11 1.726-3.596 4.705-6.211 8.547-7.458 1.479-.49 2.034-.552 5.444-.613 2.712-.061 4.376 0 5.815.204 1.109.164 2.075.348 2.136.41.062.06-.431 3.861-1.068 8.458-1.52 10.891-1.541 11.32-.801 13.916l.123.47-3.04-.062-3.042-.061-.39-1.124c-.205-.613-.41-1.165-.472-1.206-.042-.04-.452.266-.925.695-.473.409-1.377 1.001-2.013 1.308-.966.45-1.46.531-3.206.572-1.13.02-2.403-.04-2.835-.143zm6.04-6.457c1.972-1.083 2.506-2.37 3.348-8.153l.452-3.065-1.17-.061c-3.904-.204-6.945 3.453-6.966 8.296 0 1.737.39 2.758 1.213 3.208.842.45 2.013.368 3.123-.225zm-54.85 5.511c0-.163.183-1.55.408-3.101 1.304-9.142 3.26-23.282 3.26-23.506 0-.204-.693-.245-2.996-.184-3.423.061-4.28.327-5.115 1.592-.652.98-.57 2.877.224 4.489.286.612.51 1.122.49 1.142-.02.041-1.468.551-3.2 1.184-2.283.816-3.2 1.04-3.302.877-.51-.775-1.406-3.346-1.691-4.815-.469-2.286-.306-3.959.55-5.734 1.141-2.346 3.424-4.142 6.379-5.02 1.12-.346 2.588-.367 17.69-.428 13.328-.061 16.446-.02 16.446.184 0 .143-.326 2.612-.713 5.468-.388 2.857-.714 5.366-.714 5.55 0 .306.123.286 1.142-.163 1.569-.694 3.709-.96 5.563-.694 1.855.265 2.976.735 4.076 1.755 1.63 1.469 2.324 3.224 2.283 5.836 0 1.265-1.549 13.242-1.977 15.323l-.122.551h-7.765l.122-.653c.041-.367.53-3.815 1.06-7.651.856-6.08.938-7.06.713-7.611-.53-1.286-2.384-1.592-4.177-.735-2.08 1.02-1.875.429-2.976 8.305-.55 3.856-1.04 7.325-1.1 7.692l-.123.653h-3.851c-2.976 0-3.873-.061-3.873-.265 0-.123.225-1.857.51-3.816.265-1.959 1.1-7.815 1.834-13.018.734-5.182 1.325-9.57 1.325-9.733 0-.265-.673-.306-4.382-.306-4.361 0-4.382 0-4.483.47-.082.387-2.854 20.098-3.384 24.016a43.963 43.963 0 0 1 -.305 2.101l-.123.551h-3.851c-3.24 0-3.852-.04-3.852-.306zm68.922-.34c.06-.363.63-4.257 1.26-8.635 1.259-8.837 1.3-9.806.446-11.844-.284-.706-.467-1.27-.386-1.27.061 0 1.625-.263 3.474-.606 1.849-.323 3.453-.605 3.575-.605.305 0 1.097 1.674 1.097 2.32 0 .282.041.504.102.504.06 0 .528-.323 1.056-.726 1.991-1.513 4.348-2.098 6.907-1.715 3.495.525 5.485 2.179 6.278 5.266.426 1.654.345 2.522-.894 11.198l-.955 6.658-3.738.06c-2.072.02-3.82-.02-3.9-.1-.082-.101.304-3.208.853-6.92 1.158-7.97 1.178-8.434.508-9.221-.447-.525-.61-.565-1.89-.565-1.117 0-1.543.1-2.295.544-1.646.949-1.524.606-2.702 8.757l-1.056 7.445-3.921.06-3.921.041zm24.053 1.185c.161-.249 4.714-6.192 7.876-10.25l1.491-1.906-3.163-5.342c-1.732-2.94-3.203-5.446-3.243-5.591-.08-.207.745-.27 3.888-.27h4.009l1.41 2.796c.786 1.532 1.47 2.795 1.531 2.795.06 0 .967-1.263 2.014-2.795l1.894-2.796h4.392c2.397 0 4.371.063 4.371.125s-1.793 2.36-3.969 5.114c-2.175 2.755-4.25 5.384-4.613 5.84l-.644.828 3.505 5.695c1.914 3.127 3.505 5.757 3.505 5.86 0 .083-1.853.145-4.11.145h-4.13l-1.53-3.003-1.531-3.023-2.236 3.023-2.236 3.003h-4.311c-3.405 0-4.291-.062-4.17-.248zm29.06-13.639c.177-.302.551-.83.807-1.227l.493-.68-.493-1.152c-.275-.642-.433-1.152-.394-1.152.06 0 .591.264 1.202.585l1.083.604 1.24-.585c.69-.34 1.26-.567 1.26-.51 0 .038-.315.567-.728 1.171l-.709 1.076.354.964c.197.51.394 1.057.453 1.208.06.17-.354.02-1.063-.359l-1.182-.604-1.22.586c-.67.32-1.26.585-1.34.585-.059 0 .04-.227.237-.51zm16.58-3.139c.775-1.141 1.399-2.2 1.399-2.386 0-.187-.344-1.183-.753-2.22-.43-1.038-.71-1.93-.667-1.972.043-.041.946.374 2.022.955 1.055.58 2.045 1.058 2.174 1.058.13 0 1.227-.477 2.41-1.058 1.205-.56 2.217-.996 2.281-.955.043.063-.56 1.038-1.334 2.18l-1.442 2.095.84 2.179c.473 1.224.796 2.2.71 2.2-.065 0-1.033-.478-2.13-1.06l-1.98-1.078-2.325 1.078c-1.27.58-2.389 1.058-2.453 1.058-.086 0 .495-.934 1.248-2.075zm-12.83-14.16c.97-1.573 1.745-3.023 1.745-3.21 0-.186-.427-1.552-.95-3.043-.523-1.47-.891-2.692-.852-2.692.058 0 1.22.662 2.577 1.45l2.48 1.47 2.867-1.47c1.57-.788 2.887-1.409 2.926-1.367.039.041-.678 1.284-1.589 2.774-.91 1.491-1.647 2.879-1.647 3.107 0 .227.427 1.636.95 3.126.523 1.491.891 2.713.833 2.713-.039 0-1.163-.642-2.48-1.45-1.318-.786-2.48-1.449-2.577-1.449s-1.453.663-3.023 1.45c-1.57.807-2.887 1.45-2.925 1.45-.04 0 .716-1.285 1.666-2.859zm-15.607-3.658c.085-.146.726-1.124 1.41-2.165s1.24-1.978 1.24-2.082-.342-1.062-.77-2.145c-.406-1.061-.705-1.977-.641-2.04.043-.042.962.396 2.052.979l1.966 1.082 2.35-1.062c1.304-.603 2.394-1.04 2.437-.999.043.042-.577 1-1.347 2.144l-1.431 2.062.79 2.165c.428 1.207.748 2.207.727 2.248-.043.042-.94-.395-1.988-.978-1.047-.562-2.03-1.041-2.18-1.041-.149 0-1.218.479-2.393 1.04-2.287 1.125-2.458 1.187-2.222.792zm34.19-8.444c0-.078.357-.64.793-1.26l.792-1.142-.416-1.085c-.218-.6-.376-1.123-.317-1.181.04-.04.475.135.951.406 1.09.6 1.347.6 2.576-.019.554-.271 1.03-.465 1.07-.426.04.039-.258.562-.654 1.181l-.714 1.124.377 1.007c.198.562.396 1.124.456 1.26.04.135-.377-.02-.932-.35-.574-.31-1.169-.58-1.327-.58-.159 0-.812.27-1.466.58-.654.33-1.189.543-1.189.485z" fill="#a09a93"/></svg>