<svg height="36" viewBox="0 0 224 36" width="224" xmlns="http://www.w3.org/2000/svg"><path d="m35.108 8.217h16.198v2.76h-6.67v16.884h-2.946v-16.883h-6.582v-2.76zm36.238 8.588v-8.617h2.945v19.673h-2.945v-8.28h-10.086v8.28h-2.945v-19.673h2.945v8.617zm12.148 11.056v-19.673h2.945v19.673zm22.603-7.069 6.568 7.07h-3.932l-6.302-6.85h-3.873v6.85h-2.945v-19.675h8.835a6.392 6.392 0 0 1 4.79 1.733 6.284 6.284 0 0 1 1.969 4.664 6.165 6.165 0 0 1 -1.767 4.513 6.352 6.352 0 0 1 -3.343 1.636v.058zm-7.539-2.614h5.699c2.562 0 3.813-1.168 3.843-3.564a3.548 3.548 0 0 0 -.987-2.54 3.713 3.713 0 0 0 -2.71-1.009h-5.89v7.113zm37.932-.336a9.987 9.987 0 0 1 -2.725 7.303 9.955 9.955 0 0 1 -7.362 2.79h-6.95v-19.748h6.95a9.514 9.514 0 0 1 7.16 2.594 9.353 9.353 0 0 1 2.912 6.987l.015.073zm-4.89 5.229a7.181 7.181 0 0 0 1.945-5.2 6.603 6.603 0 0 0 -2.042-4.93 6.717 6.717 0 0 0 -5.041-1.846h-4.064v13.845h4.005c1.924.09 3.8-.613 5.183-1.942l.015.073zm15.433-14.883v16.752h10.307v2.921h-13.252v-19.673zm31.32 2.425a10.177 10.177 0 0 1 2.842 7.404c0 4.864-3.152 10.093-9.97 10.093-6.817 0-9.968-5.258-9.968-10.151s3.077-10.063 9.969-10.063c2.648-.09 5.22.89 7.127 2.717zm0 7.375c0-3.622-2.194-7.302-7.083-7.302a6.938 6.938 0 0 0 -5.036 1.884 7.442 7.442 0 0 0 -2.003 5.389c0 3.52 2.239 7.303 7.054 7.303a6.964 6.964 0 0 0 5.064-2.137 6.847 6.847 0 0 0 1.9-5.122zm16.374 5.492 6.258-15.292h3.166l-8.128 19.673h-2.563l-8.128-19.673h3.166zm17.743 1.46h11.53v2.921h-14.43v-19.673h14.106v2.834h-11.206v5.52h10.69v2.79h-10.69zm-199.737-20.9-10.677 10.689a.231.231 0 0 1 -.32 0l-1.672-1.569a.236.236 0 0 1 0-.322l12.669-12.774a.231.231 0 0 1 .32 0l12.524 12.788a.236.236 0 0 1 0 .323l-4.67 4.708-.16.161-.16.161-1.614 1.628-.102.176-.16.161-5.658 5.705a.231.231 0 0 1 -.32 0l-6.982-7.04a.498.498 0 0 1 -.145-.19.498.498 0 0 0 -.146-.19l-.29-.294a.236.236 0 0 1 0-.322l7.563-7.626a.231.231 0 0 1 .32 0l4.945 5a.236.236 0 0 1 0 .323l-1.614 1.628a.231.231 0 0 1 -.32 0l-3.011-3.05a.231.231 0 0 0 -.32 0l-3.724 3.769a.236.236 0 0 0 0 .322l3.738 3.755c.09.085.23.085.32 0l.626-.631.16-.161.16-.162 6.865-6.936.16-.162.16-.161.582-.587a.236.236 0 0 0 0-.322l-8.727-8.8a.231.231 0 0 0 -.32 0zm8.625 14.87a.231.231 0 0 1 .32 0l3.971 4.004a.236.236 0 0 1 0 .323l-12.596 12.7a.231.231 0 0 1 -.32 0l-12.67-12.7a.236.236 0 0 1 0-.323l1.615-1.628a.231.231 0 0 1 .32 0l10.735 10.75c.09.085.23.085.32 0l8.727-8.8a.236.236 0 0 0 0-.322l-2.036-2.053a.236.236 0 0 1 0-.323z" fill="#a09a93"/></svg>