<svg height="87" viewBox="0 0 124 87" width="124" xmlns="http://www.w3.org/2000/svg" xmlns:xlink="http://www.w3.org/1999/xlink"><linearGradient id="a"><stop offset="0" stop-color="#e47e1a"/><stop offset="1" stop-color="#cb6015"/></linearGradient><linearGradient id="b" x1="43.265%" x2="38.125%" xlink:href="#a" y1="43.4%" y2="18.457%"/><linearGradient id="c" x1="33.479%" x2="12.056%" xlink:href="#a" y1="58.781%" y2="41.432%"/><g fill="none" fill-rule="evenodd"><path d="m107 19c0-10.493-8.507-19-19-19s-19 8.507-19 19 8.507 19 19 19 19-8.507 19-19m-79 53c0-7.732-6.268-14-14-14s-14 6.268-14 14 6.268 14 14 14 14-6.268 14-14m96-2c0-8.837-7.163-16-16-16s-16 7.163-16 16 7.163 16 16 16 16-7.163 16-16" fill="#00a3ad" opacity=".163"/><path d="m108.488 73h4.512v-54h-67.359v8.504h-8.912a11.161 11.161 0 0 0 -7.977 3.377l-17.77 19.89a6.999 6.999 0 0 0 -1.982 4.894v15.03c0 1.273 1.01 2.305 2.256 2.305h97.231z" fill="#fff"/><path d="m108.488 73h4.512v-54h-67v8.504h-9.27a11.161 11.161 0 0 0 -7.978 3.377l-17.77 19.89a6.999 6.999 0 0 0 -1.982 4.894v15.03c0 1.273 1.01 2.305 2.256 2.305h97.231z" stroke="#1d6076" stroke-linecap="round" stroke-linejoin="round" stroke-width="2"/><path d="m112 72v-50c-21.488 30.033-55.488 45.05-102 45.05v3.663c0 .484.166.926.438 1.287z" fill="#00a1af" opacity=".1"/><g stroke="#1d6076" stroke-width="2"><path d="m116 86.003h-104m-5 0h-2m41-32.003v2" stroke-linecap="round" stroke-linejoin="round"/><path d="m108 72c0-7.733-6.268-14-14-14s-14 6.267-14 14c0 7.732 6.268 14 14 14s14-6.268 14-14zm-67 0c0-7.733-6.268-14-14-14-7.733 0-14 6.267-14 14 0 7.732 6.267 14 14 14 7.732 0 14-6.268 14-14z" fill="#fff" stroke-linecap="round" stroke-linejoin="round"/><path d="m31 72a4 4 0 1 0 -8 0 4 4 0 0 0 8 0zm67 0a4 4 0 1 0 -8 0 4 4 0 0 0 8 0z" fill="#fff"/><path d="m46 27v22" stroke-linecap="round" stroke-linejoin="round"/></g><g fill-rule="nonzero"><path d="m4.863 3.618a3.824 3.824 0 0 0 -1.473 1.422 3.824 3.824 0 0 0 -1.473 1.422c-1.159.603-1.917 1.766-1.917 3.144v8.314l.892.603v-9.132c0-.646.223-1.206.58-1.68v11.2l.892.603v-11.33c0-.387.09-.732.224-1.076.089-.216.223-.431.356-.603v13.44l.893.603v-13.785c0-.258.044-.474.089-.732.045-.13.09-.216.134-.345.089-.215.223-.43.357-.603v15.852l.892.603v-16.196c0-.259.045-.474.09-.733.044-.129.088-.215.133-.344.09-.216.223-.431.357-.603v18.264l.892.603v-18.609c0-.258.045-.474.09-.732.044-.13.089-.216.133-.345.179-.43.49-.775.848-1.077-.536.043-1.07.172-1.517.43-.58.302-1.115.82-1.472 1.422z" fill="url(#b)" transform="translate(61 29)"/><path d="m18.96 23.735.67-.603-8.834-6.03c-.223-.13-.401-.345-.535-.517-.09-.13-.134-.216-.223-.345a2.28 2.28 0 0 1 -.223-.948v-.258c-.357.344-.625.732-.759 1.163-.089.301-.133.603-.133.905 0 .301.044.646.178.947-.09.302-.178.603-.178.905 0 .344.044.646.178.948-.09.301-.178.603-.178.904 0 .345.044.646.178.948a2.182 2.182 0 0 0 -.178.904c0 .819.401 1.551 1.07 1.982l4.462 2.972.669-.603-4.685-3.144c-.401-.259-.669-.733-.713-1.207v-.043c.133.13.223.216.356.302l5.532 3.748.67-.603-5.666-3.834c-.223-.13-.357-.302-.49-.517-.135-.216-.269-.474-.269-.776.09.087.223.173.313.259l6.558 4.437.669-.603-6.692-4.48c-.09-.086-.178-.13-.268-.259-.133-.129-.223-.258-.312-.387-.134-.216-.223-.431-.223-.69.134.13.223.216.357.302l7.629 5.17.669-.604-7.807-5.255c-.179-.13-.313-.216-.402-.388l-.268-.388a2.436 2.436 0 0 1 -.223-.603c.134.13.268.216.402.345l8.7 5.944z" fill="url(#c)" transform="translate(61 29)"/><path d="m70.726 29.302h-.134c-1.383 0-2.632.732-3.257 1.852a3.824 3.824 0 0 0 -1.472 1.421 3.824 3.824 0 0 0 -1.472 1.422 3.824 3.824 0 0 0 -1.473 1.421c-1.16.604-1.918 1.767-1.918 3.145v2.068c0-2.714 1.65-4.739 3.703-4.739h6.023c1.561 0 2.81 1.206 2.81 2.714 0 .732-.312 1.465-.937 2.025l-1.606 1.378c-.669.603-1.07 1.422-1.07 2.326 0 .302.044.647.133.948-.089.302-.133.603-.133.905 0 .301.044.646.178.947-.09.302-.178.603-.178.905 0 .345.044.646.178.948-.09.301-.178.603-.178.904 0 .345.044.646.178.948a2.182 2.182 0 0 0 -.178.905c0 .818.401 1.55 1.07 1.981l.58.388c-.535-.43-.847-1.163-.847-1.896 0-.56.178-1.12.446-1.464.044-.043.089-.13.178-.172l5.844-5.084c2.008-1.809 3.079-4.221 3.079-6.806.044-5.212-4.238-9.39-9.547-9.39zm.892 13.31 1.606-1.378c.758-.732 1.204-1.637 1.204-2.628 0-1.981-1.65-3.575-3.702-3.575h-6.291c.179-.13.402-.259.625-.345.134-.043.223-.086.357-.13.223-.042.49-.085.758-.085h4.551c2.364 0 4.282 1.852 4.282 4.135 0 1.12-.49 2.24-1.383 3.059l-2.632 2.326-.089.086c0-.603.268-1.077.714-1.465zm-.536 2.628c.134-.258.268-.474.491-.646l2.632-2.326c1.071-.991 1.696-2.283 1.696-3.662 0-2.757-2.32-4.997-5.175-4.997h-4.863c.178-.129.401-.258.624-.344.134-.043.223-.087.357-.13.223-.043.491-.086.759-.086h3.078c3.167 0 5.755 2.499 5.755 5.557 0 1.55-.67 3.016-1.874 4.092l-3.301 2.887-.357.344-.045.043c0-.258.09-.517.223-.732zm0 1.81c.045-.087.134-.173.179-.26.09-.085.134-.172.223-.258l3.703-3.23c1.383-1.25 2.141-2.93 2.141-4.739 0-3.532-2.989-6.418-6.647-6.418h-3.391c.179-.13.402-.259.625-.345.357-.13.714-.215 1.115-.215h1.606c4.06 0 7.317 3.144 7.317 6.978 0 1.939-.848 3.748-2.32 5.126l-4.283 3.748-.49.43c0-.258.089-.56.222-.818zm5.532-2.284-5.22 4.523-.58.474c0-.301.09-.603.268-.861.09-.13.134-.216.224-.302l.089-.086 4.773-4.179c1.696-1.55 2.633-3.575 2.633-5.772 0-4.308-3.659-7.84-8.12-7.84h-1.874a2.98 2.98 0 0 1 1.74-.56h.134c4.818 0 8.7 3.79 8.7 8.4.044 2.37-.937 4.566-2.767 6.203z" fill="#eb9d00"/></g></g></svg>