<svg xmlns="http://www.w3.org/2000/svg" width="176" height="52" viewBox="0 0 176 52">
    <path fill="#A09A93" fill-rule="nonzero" d="M26.474 0c14.614 0 26.474 11.648 26.474 26s-11.86 26-26.474 26S0 40.352 0 26 11.86 0 26.474 0zm0 6.864C15.673 6.864 6.99 15.392 6.99 26c0 10.608 8.684 19.136 19.485 19.136 10.802 0 19.485-8.528 19.485-19.136 0-10.608-8.683-19.136-19.485-19.136zm136.077 10.712c7.836 0 13.449 5.616 13.449 12.272v.104c0 6.656-5.613 12.376-13.555 12.376-7.836 0-13.449-5.616-13.449-12.272v-.104c0-6.656 5.613-12.376 13.555-12.376zm-91.177-7.28c.318-.104.636.208.636.416V18.2h14.084c.318 0 .53.208.635.416l1.165 4.264 1.06 4.264.105.208.106-.416 2.647-8.632c.106-.208.424-.416.636-.416h6.989c.318 0 .53.208.635.416l2.754 9.256.105-.416 2.33-8.632c.106-.208.424-.416.636-.416h18.002c.212 0 .424.208.424.52v22.672c0 .208-.212.416-.424.416h-9.001c-.212 0-.424-.208-.424-.416v-21.84l-6.777 21.84c-.106.208-.424.416-.636.416H99.65c-.318 0-.53-.208-.636-.416l-1.482-4.576-1.589-4.992-3.177 9.672c-.106.208-.423.416-.635.416h-7.413c-.317 0-.53-.208-.635-.416L77.41 19.656v5.616c0 .208-.211.416-.423.416h-5.083v5.928c0 1.768.847 2.392 2.435 2.392.848 0 1.589-.104 2.542-.52.212 0 .53.104.53.416v6.864c-1.59.832-3.919 1.352-6.354 1.352-5.825 0-9.002-2.704-9.002-8.424v-8.112h-2.33c-.211 0-.423-.208-.423-.416v-6.656c0-.208.212-.416.424-.416h2.33v-4.68c0-.208.105-.312.423-.416zm64.385-.104c.212 0 .424.208.424.416v30.68c0 .208-.212.416-.424.416h-9c-.213 0-.424-.208-.424-.416v-30.68c0-.208.211-.416.423-.416zm11.86 7.904c.213 0 .424.208.424.52v22.672c0 .208-.211.416-.423.416h-9.001c-.212 0-.424-.208-.424-.416V18.512c0-.208.212-.416.424-.416zM33.04 27.04c3.042 0 5.507 2.421 5.507 5.408 0 2.987-2.465 5.408-5.506 5.408-3.042 0-5.507-2.421-5.507-5.408 0-2.987 2.465-5.408 5.507-5.408zm-13.13 0c3.04 0 5.506 2.421 5.506 5.408 0 2.987-2.465 5.408-5.506 5.408-3.042 0-5.507-2.421-5.507-5.408 0-2.987 2.465-5.408 5.507-5.408zm142.536-1.352c-2.224 0-3.812 1.768-3.812 4.056v.104c0 2.288 1.694 4.16 3.918 4.16s3.812-1.768 3.812-4.056c0-2.392-1.694-4.264-3.918-4.264zM33.04 14.144c3.04 0 5.506 2.421 5.506 5.408 0 2.987-2.465 5.408-5.506 5.408-3.042 0-5.507-2.421-5.507-5.408 0-2.987 2.465-5.408 5.507-5.408zm-13.131 0c3.04 0 5.506 2.421 5.506 5.408 0 2.987-2.465 5.408-5.506 5.408-3.042 0-5.507-2.421-5.507-5.408 0-2.987 2.465-5.408 5.507-5.408zm104.096-3.952c.318 0 .53.208.423.416v5.304c0 .208-.211.416-.423.416h-9.32c-.21 0-.423-.208-.423-.416v-5.304c0-.208.212-.416.424-.416zm23.72 0c.318 0 .53.208.424.416v5.304c0 .208-.212.416-.423.416h-9.32c-.211 0-.423-.208-.423-.416v-5.304c0-.208.212-.416.424-.416z"/>
</svg>
