<svg xmlns="http://www.w3.org/2000/svg" width="198" height="56" viewBox="0 0 198 56">
    <path fill="#A09A93" fill-rule="nonzero" d="M22.346 0c5.246 0 6.27 5.919 3.86 14.567-3.266 11.937-5.147 20.026-5.147 24.991 0 .757.033 1.414.099 1.973.297 2.4 1.22 3.453 2.442 3.453.429 0 .858-.131 1.287-.427.66-.428 1.352-1.151 2.21-2.236 3.135-3.913 6.765-9.537 10.032-15.883 3.795-7.366 5.808-11.279 7.128-13.942 1.518-3.124 2.673-4.341 5.082-4.341.165 0 .33.033.495.033 3.927.329 5.379 4.702 5.379 11.147 0 6.281.198 10.358.495 13.745.198 2.532.924 4.11 2.607 4.11.726 0 1.848-.262 2.706-.854 1.914-1.25 4.025-3.058 5.774-4.801.264.066.561.197.792.395.726.559 1.155 1.677 1.188 3.09 0 1.81-.66 4.11-2.244 6.215-2.178 2.96-6.467 5.328-11.054 5.328-6.072 0-10.362-3.256-10.89-14.042a48.088 48.088 0 0 1 .033-5.754c-8.15 18.842-15.048 27.03-22.208 28.838a13.394 13.394 0 0 1-3.234.395C12.677 56 7.1 50.114 8.453 38.177c.165-1.282.396-2.63.693-4.044.033-.132.132-.625.297-1.414.132-.526.264-1.184.429-1.94.132-.625.297-1.316.462-2.072-2.244 1.513-3.993 2.532-6.435 2.302-2.673-.263-3.993-2.598-3.894-4.933C9.475 19.96 15.45 8.023 16.44 5.623c.858-2.137 1.815-3.716 2.739-4.44C20.102.428 21.092 0 22.28 0zM184.04 23.314l4.29 12.364 4.06-12.364H198l-9.834 24.827h-5.676l2.74-6.906-7.458-17.92h6.27zM88.707 17.1v13.68c0 4.932 2.21 5.919 5.247 5.919 3.3 0 5.016-1.447 5.016-5.92V17.1h5.972V30.91c0 8.122-3.563 11.542-11.285 11.542-7.161-.033-10.89-2.96-10.89-11.542V17.1h5.94zm37.42-1.512v26.372h-3.629l-1.023-1.414c-1.485 1.118-3.2 1.808-5.61 1.808-5.115 0-8.81-3.156-8.81-9.601s4.256-9.898 9.701-9.898c1.254 0 2.508.197 3.63.625v-7.892h5.742zm11.55 7.267c5.94 0 8.613 4.143 8.613 10.687H134.28c.396 3.222 2.409 4.143 5.049 4.143 2.573 0 4.553-.625 6.104-1.677l-.792 4.538c-1.485 1.15-3.267 1.743-6.236 1.743-5.511 0-9.933-2.697-9.933-9.865 0-6.675 4.29-9.57 9.207-9.57zm32.9 0c4.423 0 6.997 2.269 6.997 8.45v10.59h-5.742v-9.932c0-2.86-1.155-3.682-3.003-3.682-1.09 0-1.98.295-3.003.953.066.658.099 1.348.099 2.105v10.588h-5.742v-9.93c0-2.862-1.155-3.684-3.036-3.684-1.023 0-1.88.23-2.87.888v12.726h-5.743V23.314h4.026l1.188 1.611c1.551-1.315 3.234-2.071 5.148-2.071 2.574 0 4.52.756 5.742 2.63 1.749-1.578 3.597-2.63 5.94-2.63zm-53.359 4.768c-2.805 0-4.389 1.874-4.389 5.031 0 3.058 1.65 4.834 4.224 4.834 1.32 0 2.277-.23 3.3-.987v-8.089c-.89-.559-1.815-.79-3.135-.79zm20.757-.428c-1.65.033-3.234.987-3.696 3.585h7.358c-.396-2.434-1.715-3.585-3.662-3.585z"/>
</svg>
