<svg height="36" viewBox="0 0 165 36" width="165" xmlns="http://www.w3.org/2000/svg"><path d="m55.937 35.802c-2.057-.531-3.227-1.02-4.566-1.93-1.155-.77-2.55-2.183-3.368-3.4-.366-.56-.662-1.035-.662-1.091 0-.042-.14-.392-.324-.755-.507-1.036-.916-2.77-1.043-4.365-.085-1.078.197-3.218.55-4.267.253-.742.873-2.239.958-2.309.056-.042.324-.447.62-.923.705-1.147 2.494-2.952 3.298-3.316.169-.084.31-.195.31-.265 0-.056.084-.112.197-.112a.68.68 0 0 0 .394-.182c.198-.182 1.65-.812 2.509-1.063.986-.308 2.692-.574 3.636-.574 1.226 0 3.946.546 4.763.937.14.084.395.196.55.28 1.522.742 3.255 2.029 3.917 2.882.198.252.465.574.606.728.578.615 1.522 2.322 1.889 3.427.746 2.238.86 4.98.295 7.345-.479 2.014-1.662 4-3.396 5.694-1.17 1.147-1.494 1.37-2.889 2.098-1.24.63-1.268.644-3.255 1.147-1.085.28-3.904.28-4.989.014zm54.913-.002c-1.456-.378-1.908-.532-2.826-.952-.975-.448-2.02-1.078-2.092-1.247-.028-.07-.113-.112-.197-.112-.24 0-2.162-2.016-2.685-2.815-.89-1.372-.989-1.555-1.342-2.493-.565-1.499-.75-2.62-.75-4.496 0-1.779.227-3.25.637-4.286.31-.742 1.102-2.353 1.2-2.437.043-.042.227-.294.396-.56.325-.532 2.77-2.941 2.982-2.941.07 0 .226-.084.325-.196.254-.239 2.12-1.135 2.939-1.387 4.606-1.47 9.396-.322 12.815 3.067 3.815 3.796 4.663 9.623 2.105 14.553-.607 1.176-.932 1.61-2.133 2.8-1.314 1.317-3.137 2.592-3.688 2.592-.099 0-.212.056-.254.126-.1.14-1.06.448-2.501.784-1.159.267-3.872.267-4.931 0zm39.235-.02c-1.3-.308-1.95-.504-2.33-.7-.198-.098-.58-.28-.848-.406-.791-.364-1.766-.98-2.204-1.4-.084-.07-.367-.336-.635-.574-1.47-1.317-2.712-3.277-3.376-5.294-1.003-3.08-.622-7.043.946-9.732 1.681-2.899 4.662-5.28 7.388-5.895.424-.098.974-.238 1.2-.308.961-.295 3.052-.295 4.62 0 1.808.35 3.955 1.204 4.604 1.82.1.084.255.168.325.168.24 0 2.896 2.717 3.164 3.22.142.267.297.519.354.561.099.07.847 1.61 1.059 2.17.692 1.863.862 5.322.353 7.142-.537 1.933-.65 2.24-1.44 3.53-.622 1.035-.82 1.273-1.738 2.198-1.794 1.806-3.49 2.758-5.99 3.374-1.652.407-4.053.463-5.452.127zm-140.715-.373c-.1-.34-.227-.764-.298-.962-.2-.537-.824-2.645-1.122-3.748a76.492 76.492 0 0 0 -.71-2.405c-.255-.778-.51-1.598-.567-1.839-.071-.226-.355-1.188-.625-2.121-.284-.934-.582-1.952-.667-2.264a15.618 15.618 0 0 0 -.34-1.06c-.1-.27-.256-.778-.356-1.132-.099-.354-.255-.891-.355-1.202-.099-.311-.255-.849-.354-1.203-.1-.353-.256-.89-.355-1.202-.1-.311-.256-.849-.355-1.202-.1-.354-.256-.891-.355-1.203-.1-.31-.256-.848-.355-1.202-.1-.353-.255-.863-.355-1.131-.199-.58-.326-.99-.851-2.9-.214-.779-.47-1.641-.57-1.911-.1-.268-.255-.778-.354-1.13-.1-.354-.227-.778-.298-.962a2.037 2.037 0 0 1 -.128-.595c0-.269.128-.283 4.457-.283 4.117 0 4.457.014 4.528.24.27.976.88 3.254 1.093 4.074.142.552.426 1.627.64 2.405.893 3.295 1.064 3.904 1.49 5.516.255.934.51 1.91.582 2.164.07.24.184.665.255.92.284 1.018 1.05 3.875 1.15 4.314.142.58.284.75.284.34 0-.17.085-.51.199-.764.113-.255.298-.778.411-1.174.128-.382.284-.892.37-1.132.595-1.726.766-2.235 1.007-3.041.312-1.09.795-2.56 1.065-3.253.1-.27.681-2.023 1.277-3.89.61-1.867 1.178-3.621 1.278-3.89s.255-.75.34-1.06c.1-.312.284-.835.412-1.16l.242-.609h6.827l.398 1.301c.213.722.51 1.726.653 2.235.156.51.454 1.528.695 2.263.227.736.61 2.051.866 2.9.241.863.54 1.782.639 2.051.1.269.27.778.355 1.132.1.353.326 1.089.497 1.626.34 1.104.752 2.433.965 3.183.07.269.213.721.312.99.256.721.454 1.429.568 1.952.114.552.298.594.397.07.043-.226.142-.622.228-.89.24-.835.596-2.023.723-2.476.071-.226.242-.778.355-1.202.128-.424.298-.962.355-1.202.242-.82.582-1.995.795-2.688.114-.382.327-1.146.469-1.697.156-.538.34-1.217.425-1.486.1-.268.228-.678.284-.919.071-.226.284-.962.483-1.627.199-.664.525-1.768.738-2.475.199-.693.483-1.655.639-2.122l.254-.848 4.486-.043c3.549-.028 4.486 0 4.486.142a5.798 5.798 0 0 1 -.228.75c-.127.31-.34.975-.482 1.485a26.93 26.93 0 0 1 -.54 1.697c-.142.424-.44 1.358-.667 2.051-.213.707-.468 1.5-.568 1.768-.099.269-.255.778-.354 1.132-.1.353-.256.862-.355 1.131-.114.269-.455 1.358-.781 2.405-.625 1.966-1.065 3.352-2.243 7.001a250.572 250.572 0 0 0 -1.079 3.395c-.227.707-.482 1.5-.582 1.768-.099.269-.411 1.26-.71 2.193-.283.933-.667 2.15-.837 2.687-.184.552-.454 1.358-.596 1.81l-.256.807h-8.729l-.582-1.867c-.327-1.033-.739-2.32-.923-2.871-.17-.538-.497-1.556-.71-2.264-.199-.693-.454-1.499-.568-1.768-.099-.268-.255-.778-.355-1.131-.099-.354-.326-1.075-.496-1.627a78.885 78.885 0 0 1 -.71-2.263c-.199-.693-.454-1.5-.568-1.768-.1-.269-.255-.778-.355-1.132-.1-.353-.241-.82-.326-1.047l-.156-.424-.128.424c-.057.227-.17.609-.241.835-.071.24-.256.806-.412 1.273-.554 1.556-.596 1.697-.823 2.405a20.08 20.08 0 0 1 -.398 1.202c-.1.269-1.036 3.07-2.072 6.224l-1.902 5.728-4.344.043-4.343.028-.184-.594zm64.467-10.862v-11.458h8.178v2.714l.634-.62c1.057-1.053 1.24-1.194 1.973-1.56 1.537-.773 2.087-.871 4.583-.871 2.002 0 2.453.042 3.27.295 1.481.478 2.257.928 3.13 1.814 1.1 1.082 1.552 1.967 2.073 3.992.24.97.268 1.672.268 9.108v8.041h-8.177v-6.073c0-6.48-.113-7.984-.663-9.038-.578-1.11-1.523-1.617-3.003-1.617-1.932 0-3.44 1.195-3.891 3.065-.141.618-.184 2.305-.198 7.239v6.424h-8.177v-11.456zm55-6.919v-17.626h8.286v35.25h-8.287v-17.625z" fill="#a09a93"/></svg>